<?xml version="1.0" standalone="no"?>
<!DOCTYPE svg PUBLIC "-//W3C//DTD SVG 20010904//EN"
 "http://www.w3.org/TR/2001/REC-SVG-20010904/DTD/svg10.dtd">
<svg version="1.0" xmlns="http://www.w3.org/2000/svg"
 width="64.000000pt" height="64.000000pt" viewBox="0 0 64.000000 64.000000"
 preserveAspectRatio="xMidYMid meet">
<metadata>
Created by potrace 1.10, written by Peter Selinger 2001-2011
</metadata>
<g transform="translate(0.000000,64.000000) scale(0.100000,-0.100000)"
fill="#000000" stroke="none">
<path d="M67 613 c-4 -3 -7 -55 -7 -115 0 -91 3 -110 16 -115 9 -3 25 -1 35 5
10 7 39 12 64 12 49 0 56 -12 33 -50 -10 -16 -10 -24 0 -40 6 -11 12 -43 12
-71 0 -67 33 -126 88 -157 33 -18 55 -22 131 -22 52 0 99 -5 110 -12 10 -6 26
-8 35 -5 24 9 24 225 0 234 -9 3 -25 1 -35 -5 -10 -7 -44 -12 -74 -12 -59 0
-68 10 -43 50 10 16 10 24 0 40 -6 11 -12 41 -12 67 0 67 -32 128 -84 158 -37
21 -55 25 -129 25 -47 0 -89 5 -92 10 -7 11 -38 13 -48 3z m33 -113 c0 -60 -4
-100 -10 -100 -6 0 -10 40 -10 100 0 60 4 100 10 100 6 0 10 -40 10 -100z
m215 60 c54 -26 85 -80 85 -149 l0 -51 -79 0 c-79 0 -80 0 -83 28 -3 26 -6 27
-60 30 l-58 3 0 79 0 80 77 0 c56 0 88 -5 118 -20z m105 -230 c0 -6 -40 -10
-100 -10 -60 0 -100 4 -100 10 0 6 40 10 100 10 60 0 100 -4 100 -10z m-18
-57 c3 -27 5 -28 71 -31 l67 -3 0 -79 0 -80 -87 0 c-112 0 -162 22 -192 84
-12 24 -21 62 -21 89 l0 47 79 0 c79 0 80 0 83 -27z m178 -113 c0 -60 -4 -100
-10 -100 -6 0 -10 40 -10 100 0 60 4 100 10 100 6 0 10 -40 10 -100z"/>
<path d="M140 550 c0 -5 9 -10 20 -10 11 0 20 5 20 10 0 6 -9 10 -20 10 -11 0
-20 -4 -20 -10z"/>
<path d="M280 541 c0 -12 39 -25 48 -16 7 7 -17 25 -35 25 -7 0 -13 -4 -13 -9z"/>
<path d="M140 500 c0 -5 9 -10 20 -10 11 0 20 5 20 10 0 6 -9 10 -20 10 -11 0
-20 -4 -20 -10z"/>
<path d="M345 480 c8 -16 15 -36 15 -45 0 -8 5 -15 10 -15 13 0 13 19 -1 59
-6 17 -17 31 -25 31 -12 0 -12 -4 1 -30z"/>
<path d="M140 450 c0 -5 9 -10 20 -10 11 0 20 5 20 10 0 6 -9 10 -20 10 -11 0
-20 -4 -20 -10z"/>
<path d="M480 210 c0 -5 9 -10 20 -10 11 0 20 5 20 10 0 6 -9 10 -20 10 -11 0
-20 -4 -20 -10z"/>
<path d="M480 160 c0 -5 9 -10 20 -10 11 0 20 5 20 10 0 6 -9 10 -20 10 -11 0
-20 -4 -20 -10z"/>
<path d="M480 110 c0 -5 9 -10 20 -10 11 0 20 5 20 10 0 6 -9 10 -20 10 -11 0
-20 -4 -20 -10z"/>
</g>
</svg>
